<svg width="2510" height="512" viewBox="0 0 2510 512" fill="none" xmlns="http://www.w3.org/2000/svg">
<g clip-path="url(#clip0_134_53)">
<path d="M256.015 40.0928C136.766 40.0928 40.1104 136.749 40.1104 255.999C40.1104 341.921 90.4307 415.89 163.087 450.64L169.845 320.061C169.845 320.061 157.134 315.889 154.351 314.531C127.39 302.655 107.804 267.687 107.804 222.303C107.804 172.78 146.211 130.124 183.343 129.772H183.483C220.622 130.123 259.03 172.779 259.03 222.303C259.03 267.687 239.42 302.64 212.515 314.531C212.303 314.624 196.897 320.218 196.897 320.218L204.444 465.406C221.006 469.482 238.225 471.874 256.045 471.874C280.077 471.874 303.092 467.781 324.686 460.546L331.373 331.156C313.75 327.28 298.717 316.06 289.295 301.984C277.624 284.5 298.28 129.757 298.28 129.757H311.718V274.968H325.062V129.773H339.656V275H352.938V129.773H368.079V275H381.406V129.773H391.718C391.718 129.773 412.375 284.516 400.688 302C391.359 315.938 376.468 327.125 359.063 331.094C358.751 331.204 358.469 331.312 358.469 331.312L364.281 442.61C428.594 405.219 471.938 335.751 471.938 256C471.905 136.75 375.249 40.0928 256.015 40.0928Z" fill="#FF385C"/>
<path d="M139.406 200.35C140.18 197.202 141.219 194.21 141.266 194.156C141.602 192.977 140.977 191.773 139.695 191.008C138.477 190.352 136.992 190.688 136.305 191.742C136.305 191.742 134.828 194.094 132.688 197.571C130.946 200.563 128.368 205.344 126.609 211.297C125.085 216.515 123.266 223.453 122.445 231.218C122.11 235.057 122.008 238.913 122.14 242.765C122.445 247.084 123.1 250.78 124.351 255.006C128.593 267.061 131.859 278.734 143.648 290.249C147.374 294.077 151.203 296.686 153.968 298.608L154.944 299.295C155.539 299.687 156.109 300.047 156.671 300.375C158.992 301.594 160.545 302.031 160.828 302.093C161.983 302.405 163.172 301.842 163.663 300.905C164.124 299.921 163.788 298.686 162.828 297.906C162.828 297.906 161.483 296.735 159.757 294.547C158.578 293.218 157.296 291.296 155.805 289.126C154.751 287.594 153.508 285.859 152.351 284.172C146.609 275.406 143.298 263.172 138.719 250.64C137.821 247.921 137.086 244.397 136.812 241.405C136.46 238.128 136.281 234.834 136.274 231.538C136.141 224.366 136.461 218.21 137.086 213.218C137.805 207.586 138.367 203.359 139.406 200.35Z" fill="#FF385C"/>
<path d="M256.015 0C114.868 0 0 114.843 0 255.999C0 397.124 114.868 512 256.015 512C397.157 512 512.001 397.124 512.001 255.999C512 114.843 397.157 0 256.015 0ZM256.015 492.906C125.375 492.906 19.0856 386.625 19.0856 255.999C19.0856 125.358 125.375 19.0695 256.015 19.0695C386.642 19.0695 492.939 125.358 492.939 255.999C492.937 386.625 386.64 492.906 256.015 492.906Z" fill="#FF385C"/>
</g>
<path d="M631.101 275.987C631.101 259.398 634.188 244.835 640.36 232.297C646.725 219.76 655.309 210.115 666.111 203.364C676.912 196.613 688.968 193.237 702.277 193.237C713.658 193.237 723.592 195.552 732.079 200.181C740.759 204.811 747.413 210.887 752.043 218.409V195.552H801.519V357H752.043V334.143C747.22 341.665 740.469 347.741 731.789 352.371C723.302 357 713.368 359.315 701.988 359.315C688.872 359.315 676.912 355.939 666.111 349.188C655.309 342.244 646.725 332.503 640.36 319.965C634.188 307.235 631.101 292.575 631.101 275.987ZM752.043 276.276C752.043 263.931 748.571 254.19 741.627 247.053C734.876 239.916 726.581 236.348 716.744 236.348C706.907 236.348 698.516 239.916 691.572 247.053C684.821 253.997 681.445 263.642 681.445 275.987C681.445 288.332 684.821 298.169 691.572 305.499C698.516 312.636 706.907 316.204 716.744 316.204C726.581 316.204 734.876 312.636 741.627 305.499C748.571 298.362 752.043 288.621 752.043 276.276ZM862.195 178.771C853.515 178.771 846.378 176.263 840.784 171.248C835.383 166.04 832.683 159.675 832.683 152.152C832.683 144.436 835.383 138.071 840.784 133.056C846.378 127.848 853.515 125.244 862.195 125.244C870.682 125.244 877.626 127.848 883.027 133.056C888.621 138.071 891.418 144.436 891.418 152.152C891.418 159.675 888.621 166.04 883.027 171.248C877.626 176.263 870.682 178.771 862.195 178.771ZM886.788 195.552V357H837.312V195.552H886.788ZM972.119 222.46C977.906 213.587 985.139 206.643 993.819 201.628C1002.5 196.42 1012.14 193.816 1022.75 193.816V246.185H1009.15C996.809 246.185 987.55 248.886 981.378 254.287C975.205 259.495 972.119 268.753 972.119 282.063V357H922.643V195.552H972.119V222.46Z" fill="#FF385C"/>
<path d="M1198.59 273.672C1198.59 278.301 1198.3 283.124 1197.72 288.139H1085.75C1086.52 298.169 1089.7 305.884 1095.3 311.285C1101.08 316.493 1108.13 319.097 1116.42 319.097C1128.76 319.097 1137.35 313.889 1142.17 303.473H1194.83C1192.13 314.082 1187.21 323.63 1180.07 332.117C1173.13 340.604 1164.35 347.259 1153.74 352.081C1143.13 356.904 1131.27 359.315 1118.16 359.315C1102.34 359.315 1088.26 355.939 1075.91 349.188C1063.57 342.437 1053.92 332.792 1046.98 320.255C1040.04 307.717 1036.56 293.057 1036.56 276.276C1036.56 259.495 1039.94 244.835 1046.69 232.297C1053.63 219.76 1063.28 210.115 1075.62 203.364C1087.97 196.613 1102.15 193.237 1118.16 193.237C1133.78 193.237 1147.67 196.516 1159.82 203.075C1171.97 209.633 1181.42 218.988 1188.17 231.14C1195.12 243.292 1198.59 257.469 1198.59 273.672ZM1147.96 260.652C1147.96 252.165 1145.06 245.414 1139.28 240.399C1133.49 235.384 1126.26 232.876 1117.58 232.876C1109.28 232.876 1102.24 235.287 1096.46 240.109C1090.86 244.932 1087.39 251.779 1086.04 260.652H1147.96ZM1290.37 359.315C1276.29 359.315 1263.75 356.904 1252.76 352.081C1241.76 347.259 1233.08 340.701 1226.72 332.407C1220.35 323.92 1216.78 314.468 1216.01 304.052H1264.91C1265.49 309.646 1268.09 314.179 1272.72 317.651C1277.35 321.123 1283.04 322.859 1289.79 322.859C1295.96 322.859 1300.69 321.701 1303.97 319.387C1307.44 316.879 1309.18 313.696 1309.18 309.839C1309.18 305.209 1306.77 301.834 1301.94 299.712C1297.12 297.397 1289.31 294.89 1278.51 292.189C1266.93 289.489 1257.29 286.692 1249.57 283.799C1241.86 280.712 1235.2 275.987 1229.61 269.621C1224.02 263.063 1221.22 254.287 1221.22 243.292C1221.22 234.033 1223.73 225.643 1228.74 218.12C1233.95 210.404 1241.47 204.328 1251.31 199.892C1261.34 195.456 1273.2 193.237 1286.9 193.237C1307.15 193.237 1323.06 198.252 1334.64 208.283C1346.4 218.313 1353.16 231.622 1354.89 248.211H1309.18C1308.41 242.617 1305.9 238.18 1301.65 234.901C1297.6 231.622 1292.2 229.983 1285.45 229.983C1279.66 229.983 1275.23 231.14 1272.14 233.455C1269.06 235.576 1267.51 238.566 1267.51 242.424C1267.51 247.053 1269.92 250.525 1274.75 252.84C1279.76 255.155 1287.48 257.469 1297.89 259.784C1309.85 262.87 1319.59 265.956 1327.12 269.043C1334.64 271.936 1341.2 276.758 1346.79 283.509C1352.58 290.068 1355.57 298.94 1355.76 310.128C1355.76 319.58 1353.06 328.067 1347.66 335.589C1342.45 342.919 1334.83 348.706 1324.8 352.949C1314.96 357.193 1303.49 359.315 1290.37 359.315ZM1476.01 315.047V357H1450.84C1432.9 357 1418.92 352.66 1408.89 343.98C1398.86 335.107 1393.84 320.737 1393.84 300.869V236.637H1374.17V195.552H1393.84V156.203H1443.32V195.552H1475.72V236.637H1443.32V301.448C1443.32 306.27 1444.47 309.742 1446.79 311.864C1449.1 313.986 1452.96 315.047 1458.36 315.047H1476.01ZM1493.73 275.987C1493.73 259.398 1496.82 244.835 1502.99 232.297C1509.36 219.76 1517.94 210.115 1528.74 203.364C1539.54 196.613 1551.6 193.237 1564.91 193.237C1576.29 193.237 1586.22 195.552 1594.71 200.181C1603.39 204.811 1610.04 210.887 1614.67 218.409V195.552H1664.15V357H1614.67V334.143C1609.85 341.665 1603.1 347.741 1594.42 352.371C1585.93 357 1576 359.315 1564.62 359.315C1551.5 359.315 1539.54 355.939 1528.74 349.188C1517.94 342.244 1509.36 332.503 1502.99 319.965C1496.82 307.235 1493.73 292.575 1493.73 275.987ZM1614.67 276.276C1614.67 263.931 1611.2 254.19 1604.26 247.053C1597.51 239.916 1589.21 236.348 1579.38 236.348C1569.54 236.348 1561.15 239.916 1554.2 247.053C1547.45 253.997 1544.08 263.642 1544.08 275.987C1544.08 288.332 1547.45 298.169 1554.2 305.499C1561.15 312.636 1569.54 316.204 1579.38 316.204C1589.21 316.204 1597.51 312.636 1604.26 305.499C1611.2 298.362 1614.67 288.621 1614.67 276.276ZM1859.37 195.552V357H1809.89V335.011C1804.88 342.148 1798.03 347.934 1789.35 352.371C1780.86 356.614 1771.41 358.736 1760.99 358.736C1748.65 358.736 1737.75 356.036 1728.3 350.635C1718.85 345.041 1711.52 337.036 1706.31 326.62C1701.1 316.204 1698.5 303.956 1698.5 289.875V195.552H1747.68V283.22C1747.68 294.022 1750.48 302.412 1756.07 308.392C1761.67 314.372 1769.19 317.361 1778.64 317.361C1788.29 317.361 1795.91 314.372 1801.5 308.392C1807.09 302.412 1809.89 294.022 1809.89 283.22V195.552H1859.37ZM1944.38 222.46C1950.17 213.587 1957.4 206.643 1966.08 201.628C1974.76 196.42 1984.41 193.816 1995.01 193.816V246.185H1981.42C1969.07 246.185 1959.81 248.886 1953.64 254.287C1947.47 259.495 1944.38 268.753 1944.38 282.063V357H1894.9V195.552H1944.38V222.46ZM2008.83 275.987C2008.83 259.398 2011.91 244.835 2018.08 232.297C2024.45 219.76 2033.03 210.115 2043.83 203.364C2054.64 196.613 2066.69 193.237 2080 193.237C2091.38 193.237 2101.32 195.552 2109.8 200.181C2118.48 204.811 2125.14 210.887 2129.77 218.409V195.552H2179.24V357H2129.77V334.143C2124.94 341.665 2118.19 347.741 2109.51 352.371C2101.03 357 2091.09 359.315 2079.71 359.315C2066.6 359.315 2054.64 355.939 2043.83 349.188C2033.03 342.244 2024.45 332.503 2018.08 319.965C2011.91 307.235 2008.83 292.575 2008.83 275.987ZM2129.77 276.276C2129.77 263.931 2126.29 254.19 2119.35 247.053C2112.6 239.916 2104.31 236.348 2094.47 236.348C2084.63 236.348 2076.24 239.916 2069.3 247.053C2062.54 253.997 2059.17 263.642 2059.17 275.987C2059.17 288.332 2062.54 298.169 2069.3 305.499C2076.24 312.636 2084.63 316.204 2094.47 316.204C2104.31 316.204 2112.6 312.636 2119.35 305.499C2126.29 298.362 2129.77 288.621 2129.77 276.276ZM2313.41 193.816C2332.31 193.816 2347.36 199.988 2358.55 212.333C2369.93 224.485 2375.62 241.267 2375.62 262.677V357H2326.43V269.332C2326.43 258.53 2323.63 250.14 2318.04 244.16C2312.45 238.18 2304.92 235.191 2295.47 235.191C2286.02 235.191 2278.5 238.18 2272.9 244.16C2267.31 250.14 2264.51 258.53 2264.51 269.332V357H2215.04V195.552H2264.51V216.963C2269.53 209.826 2276.28 204.232 2284.77 200.181C2293.25 195.938 2302.8 193.816 2313.41 193.816ZM2499.98 315.047V357H2474.81C2456.87 357 2442.88 352.66 2432.85 343.98C2422.82 335.107 2417.81 320.737 2417.81 300.869V236.637H2398.13V195.552H2417.81V156.203H2467.29V195.552H2499.69V236.637H2467.29V301.448C2467.29 306.27 2468.44 309.742 2470.76 311.864C2473.07 313.986 2476.93 315.047 2482.33 315.047H2499.98Z" fill="#FE5F7C"/>
<defs>
<clipPath id="clip0_134_53">
<rect width="512" height="512" fill="white"/>
</clipPath>
</defs>
</svg>

