<svg xmlns="http://www.w3.org/2000/svg" version="1.1" xmlns:xlink="http://www.w3.org/1999/xlink" width="512" height="512" x="0" y="0" viewBox="0 0 380.721 380.721" style="enable-background:new 0 0 512 512" xml:space="preserve" class=""><g><path d="M190.372 29.813c-88.673 0-160.546 71.873-160.546 160.547 0 63.891 37.418 118.894 91.445 144.734l5.025-97.098s-9.452-3.102-11.521-4.112c-20.048-8.831-34.612-34.833-34.612-68.58 0-36.825 28.559-68.544 56.17-68.806H136.437c27.617.261 56.177 31.98 56.177 68.806 0 33.747-14.582 59.738-34.589 68.58-.157.069-11.613 4.229-11.613 4.229l5.612 107.961c12.315 3.031 25.119 4.81 38.37 4.81 17.87 0 34.984-3.044 51.041-8.424l4.973-96.214c-13.105-2.882-24.283-11.225-31.289-21.692-8.679-13.001 6.681-128.067 6.681-128.067h9.992v107.978h9.923V96.499h10.852v107.99h9.876V96.499h11.259v107.99h9.91V96.499h7.668s15.36 115.066 6.67 128.067c-6.937 10.364-18.01 18.683-30.952 21.634-.232.082-.442.162-.442.162l4.322 82.761c47.823-27.804 80.053-79.46 80.053-138.762-.024-88.674-71.897-160.548-160.559-160.548z" fill="#2CAB42" opacity="1" data-original="#000000" class=""></path><path d="M103.662 148.98c.575-2.341 1.348-4.566 1.383-4.606.25-.877-.215-1.772-1.168-2.341-.906-.488-2.01-.238-2.521.546 0 0-1.098 1.749-2.69 4.334-1.295 2.225-3.212 5.78-4.52 10.207-1.133 3.88-2.486 9.039-3.096 14.813a70.666 70.666 0 0 0-.227 8.586c.227 3.212.714 5.96 1.644 9.103 3.154 8.964 5.583 17.644 14.349 26.206 2.771 2.847 5.618 4.787 7.674 6.216l.726.511c.442.291.866.559 1.284.803 1.726.906 2.881 1.231 3.091 1.277.859.232 1.743-.186 2.108-.883.343-.732.093-1.65-.621-2.23 0 0-1-.871-2.283-2.498-.877-.988-1.83-2.417-2.939-4.031-.784-1.139-1.708-2.429-2.568-3.684-4.27-6.518-6.732-15.615-10.137-24.934-.668-2.022-1.214-4.642-1.418-6.867a70.088 70.088 0 0 1-.4-7.337c-.099-5.333.139-9.911.604-13.623.534-4.188.952-7.331 1.725-9.568z" fill="#2CAB42" opacity="1" data-original="#000000" class=""></path><path d="M190.372 0C85.415 0 0 85.397 0 190.36 0 295.3 85.415 380.721 190.372 380.721c104.952 0 190.35-85.421 190.35-190.361C380.721 85.397 295.324 0 190.372 0zm0 366.523c-97.144 0-176.18-79.03-176.18-176.163 0-97.144 79.036-176.18 176.18-176.18 97.133 0 176.175 79.036 176.175 176.18-.001 97.133-79.043 176.163-176.175 176.163z" fill="#2CAB42" opacity="1" data-original="#000000" class=""></path></g></svg>